# xmcd CD database file
#
# Track frame offsets:
#	150
#	11360
#	21437
#	31677
#	41247
#	56175
#	68357
#	79145
#	90570
#	102637
#	115927
#	126537
#
# Disc length: 1877 seconds
#
# Revision: 2
# Processed by: cddbd v1.5.2PL0 Copyright (c) Steve Scherf et al.
# Submitted via: CDex 1.70beta2
#
DISCID=9d07530c
DTITLE=Willie Nelson - Greatest Hits Gold - Disc 1
DYEAR=2008
DGENRE=Country
TTITLE0=Phases and Stages (Circles, Cycles and Scenes)
TTITLE1=Mr. Record Man
TTITLE2=Gotta Get Drunk
TTITLE3=Within Your Crowd
TTITLE4=Little Things
TTITLE5=Born To Lose
TTITLE6=Suffer In Silence
TTITLE7=Crazy Arms
TTITLE8=Funny How Time Slips Away
TTITLE9=My Own Peculiar Way
TTITLE10=Heartaches By The Number
TTITLE11=I Walk Alone
EXTD=YEAR: 2008
EXTT0=
EXTT1=
EXTT2=
EXTT3=
EXTT4=
EXTT5=
EXTT6=
EXTT7=
EXTT8=
EXTT9=
EXTT10=
EXTT11=
PLAYORDER=
